# xmcd
#
# Track frame offsets:
#	150
#	14301
#	28767
#	42831
#	59364
#	74090
#	89184
#	106954
#	126719
#	141533
#	158697
#
# Disc length: 2332 seconds
#
# Revision: 1
# Processed by: cddbd v1.5.1PL0 Copyright (c) Steve Scherf et al.
# Submitted via: audiograbber 1.80.04
#
DISCID=a9091a0b
DTITLE=Gang Of Four - Peel Sessions
DYEAR=1900
DGENRE=
TTITLE0=I Found That Essence Rare
TTITLE1=Return The Gift
TTITLE2=5.45
TTITLE3=At Home He's A Tourist
TTITLE4=Natural's Not In It
TTITLE5=Not Great Men
TTITLE6=Ether
TTITLE7=Guns Before Butter
TTITLE8=Paralysed
TTITLE9=History's Bunk
TTITLE10=To Hell With Poverty
EXTD=
EXTT0=
EXTT1=
EXTT2=
EXTT3=
EXTT4=
EXTT5=
EXTT6=
EXTT7=
EXTT8=
EXTT9=
EXTT10=
PLAYORDER=
